<svg width="164" height="164" viewBox="0 0 164 164" fill="none"
    xmlns="http://www.w3.org/2000/svg">
    <path fill-rule="evenodd" clip-rule="evenodd" d="M164 82C164 127.287 127.287 164 82 164C36.7126 164 0 127.287 0 82C0 36.7126 36.7126 0 82 0C127.287 0 164 36.7126 164 82ZM108.298 66.7862C106.231 64.7923 102.879 64.7923 100.812 66.7862L72.7918 93.8099L63.1879 84.5475C61.1205 82.5537 57.7687 82.5537 55.7013 84.5475C53.6339 86.5414 53.6339 89.7741 55.7013 91.768L69.0484 104.641C71.1158 106.635 74.4677 106.635 76.5351 104.641L108.298 74.0067C110.366 72.0128 110.366 68.7801 108.298 66.7862Z" fill="#008DFD"/>
</svg>
